<svg width="297" height="295" viewBox="0 0 297 295" fill="none" xmlns="http://www.w3.org/2000/svg">
<path d="M146.23 64.77C164.08 64.77 180.7 70.14 194.57 79.34L223.23 50.68C201.81 34.43 175.13 24.77 146.23 24.77C118.31 24.77 91.2202 34.02 69.2002 50.65L97.8802 79.33C112.12 69.94 128.94 64.77 146.23 64.77Z" fill="black"/>
<path d="M58.5703 152.43C58.5703 135.07 63.6803 118.33 73.1303 104.07L44.4403 75.3801C27.6903 97.4801 18.5703 124.41 18.5703 152.43C18.5703 181.33 28.2303 208.01 44.4803 229.43L73.1403 200.77C63.9403 186.9 58.5703 170.28 58.5703 152.43Z" fill="black"/>
<path d="M146.23 240.09C128.38 240.09 111.76 234.72 97.8905 225.52L69.2305 254.18C90.6505 270.43 117.33 280.09 146.23 280.09C175.13 280.09 201.81 270.43 223.23 254.18L194.57 225.52C180.71 234.72 164.09 240.09 146.23 240.09Z" fill="black"/>
<path d="M247.99 75.4299L219.33 104.09C228.53 117.96 233.9 134.58 233.9 152.43C233.9 170.28 228.53 186.9 219.33 200.77L247.99 229.43C264.24 208.01 273.9 181.33 273.9 152.43C273.89 123.53 264.24 96.8499 247.99 75.4299Z" fill="black"/>
<path d="M296.9 0C276.57 23.75 255.67 46.96 234.57 69.98C224.07 81.54 213.37 92.9 202.76 104.36L170.63 138.43L138.19 172.2L121.84 188.96L113.66 197.34L105.42 205.66C83.4703 227.87 61.3103 249.88 38.5703 271.34C58.8903 247.58 79.7903 224.37 100.89 201.36L108.79 192.72L116.76 184.14L132.7 166.99L164.84 132.93L197.29 99.17C208.21 88.01 219.03 76.77 230.07 65.71C252.02 43.48 274.17 21.47 296.9 0Z" fill="black"/>
<path d="M178.97 106.89C164.95 123.38 150.51 139.46 135.91 155.4C128.65 163.41 121.24 171.27 113.9 179.19L91.65 202.75L69.16 226.09C61.58 233.79 54.09 241.57 46.43 249.19C31.2 264.52 15.82 279.7 0 294.47C14.01 277.98 28.45 261.89 43.05 245.96C50.31 237.95 57.72 230.1 65.06 222.17L87.32 198.61L109.81 175.28C117.38 167.58 124.89 159.8 132.54 152.18C147.77 136.84 163.16 121.66 178.97 106.89Z" fill="black"/>
</svg>
